<svg width="1153" height="429" viewBox="0 0 1153 429" fill="none" xmlns="http://www.w3.org/2000/svg">
<path fill-rule="evenodd" clip-rule="evenodd" d="M667.293 169.787C666.493 181.348 666.094 198.306 666.094 215.648V286.561C666.094 313.538 667.693 317.007 680.887 318.163L688.484 318.934C691.126 320.844 691.586 327.222 689.639 330.688H590.571C588.624 327.222 589.084 320.844 591.725 318.934L599.322 318.163C612.516 317.007 614.116 313.538 614.116 286.561V228.366C614.116 212.951 614.116 208.326 606.519 203.701L600.921 200.233C598.123 197.92 598.123 190.983 600.921 188.671C619.713 183.661 648.101 173.255 660.096 166.318C663.295 166.318 665.694 167.474 667.293 169.787ZM443.351 318.934C440.709 320.844 440.25 327.222 442.197 330.688H546.462C548.409 327.222 547.949 320.844 545.308 318.934L532.513 317.778C519.319 316.622 517.719 313.538 517.719 286.561V227.981C517.719 213.336 519.719 204.857 525.316 204.857C527.715 204.857 531.314 205.243 540.51 212.565C545.707 217.19 550.505 219.502 556.103 219.502C568.898 219.502 581.692 212.18 581.692 194.452C581.692 179.807 570.497 171.714 559.701 171.714C547.141 171.714 537.489 178.828 528.904 185.156C526.011 187.289 523.239 189.332 520.518 190.983C517.32 190.212 516.52 189.056 516.52 186.359C516.52 183.979 516.896 180.692 517.391 176.373L517.391 176.372L517.391 176.371C517.617 174.396 517.868 172.205 518.119 169.787C516.52 167.474 514.121 166.318 510.922 166.318C498.528 174.026 470.939 184.432 452.547 189.442C449.748 191.754 449.748 198.691 452.547 201.003L458.145 204.472C465.742 209.097 465.742 213.721 465.742 229.137V286.561C465.742 313.538 464.142 317.007 450.948 318.163L443.351 318.934ZM611.317 113.134C611.317 96.1764 625.311 85 641.304 85C658.097 85 669.292 96.9472 669.292 112.363C669.292 130.862 654.498 140.497 639.305 140.497C621.712 140.497 611.317 128.935 611.317 113.134ZM819.281 197.92C823.279 195.608 824.479 188.671 824.479 184.432C824.479 180.963 823.279 178.651 821.28 177.109H785.696C778.499 177.109 778.099 176.724 778.099 169.401V140.497C776.1 137.414 768.903 137.028 766.104 138.57C753.709 155.527 743.713 163.62 736.517 168.63C726.921 174.797 715.725 181.734 703.331 185.973C700.132 188.671 701.332 196.379 705.73 197.92H718.124C725.321 197.92 725.721 198.691 725.721 206.784V292.727C725.721 318.163 737.316 336.662 770.502 336.662C795.291 336.662 816.882 325.871 828.077 314.309C828.877 309.684 826.478 305.445 822.48 304.289C817.682 307.372 811.285 310.07 805.687 310.07C777.699 310.07 777.699 286.175 777.699 264.593V206.784C777.699 198.306 778.099 197.92 783.297 197.92H819.281ZM948.523 197.92C951.064 196.451 952.475 193.113 953.165 189.787L958.216 190.598C971.01 192.525 974.608 199.462 982.205 217.961L1020.59 311.226C1026.99 327.027 1028.19 334.35 1028.19 339.36C1028.19 343.985 1024.99 350.922 1022.59 355.546C1021.87 357 1021.18 358.429 1020.5 359.828C1017.4 366.22 1014.6 372 1010.99 376.743C1006.99 381.753 1001 384.836 991.401 384.836H981.806C967.811 384.836 959.015 393.315 959.015 404.877C959.015 415.282 963.014 428.386 984.604 428C999.398 427.615 1010.59 419.907 1018.99 402.564L1079.76 281.165L1100.95 239.157C1109.75 221.429 1119.75 204.857 1124.54 198.691C1128.14 194.066 1134.94 190.983 1142.94 190.212L1150.53 189.442C1153.5 187.537 1153.75 180.667 1151.51 177.44L1077.78 177.308C1075.35 180.348 1075.61 187.229 1078.56 189.442L1086.56 190.983C1091.36 191.754 1095.36 193.681 1095.36 196.379C1095.36 200.618 1088.96 216.805 1080.56 235.304L1073.37 251.105C1072.6 252.729 1071.83 254.368 1071.06 256.013C1067.82 262.952 1064.53 269.998 1060.97 276.541C1057.56 269.693 1052.13 255.839 1047.7 244.522C1045.89 239.915 1044.25 235.728 1042.98 232.606C1041.43 228.604 1040.02 225.002 1038.75 221.763L1038.74 221.754C1033.77 209.091 1030.98 201.988 1030.98 198.306C1030.98 194.837 1031.78 193.296 1042.98 190.983L1050.98 189.442C1053.65 187.184 1053.81 180.338 1051.45 177.261L950.716 177.08C950.686 177.117 950.657 177.154 950.627 177.192C950.593 177.164 950.557 177.136 950.522 177.109H914.937C907.74 177.109 907.34 176.724 907.34 169.401V140.497C905.341 137.414 898.144 137.028 895.346 138.57C882.951 155.527 872.955 163.62 865.758 168.63C856.162 174.797 844.967 181.734 832.572 185.973C829.374 188.671 830.573 196.379 834.971 197.92H847.366C854.563 197.92 854.963 198.691 854.963 206.784V292.727C854.963 318.163 866.558 336.662 899.744 336.662C924.533 336.662 946.124 325.871 957.319 314.309C958.119 309.684 955.72 305.445 951.721 304.289C946.923 307.372 940.526 310.07 934.929 310.07C906.941 310.07 906.941 286.175 906.941 264.593V206.784C906.941 198.306 907.34 197.92 912.538 197.92H948.523Z" fill="#525763"/>
<path fill-rule="evenodd" clip-rule="evenodd" d="M534.749 0C534.833 0.117055 534.917 0.23614 535 0.357115V11.6401C535 13.1437 533.887 14.4151 532.396 14.6138L522 16C510.5 18.5 503.624 22 500.124 26.5C494.624 34.5 486.124 50.5 472.624 82C465.728 98.4666 456.455 120.162 446.143 144.289L446.136 144.304C420.355 204.622 388.083 280.126 370.229 327.084C369.785 328.25 368.676 329 367.429 329H340.598C339.423 329 338.355 328.314 337.872 327.242C334.061 318.775 329.492 308.019 325.17 297.844C323.426 293.739 321.722 289.728 320.124 286L299.124 238.5L298.148 236.267C291.522 221.116 285.414 207.15 281.124 200C276.624 208.5 270.624 220.5 264.124 234.5L241.124 283C237.731 290.239 234.747 297.171 231.756 304.12L231.755 304.121C228.499 311.687 225.233 319.274 221.421 327.298C220.926 328.34 219.874 329 218.722 329H191.301C190.06 329 188.95 328.24 188.497 327.085C179.866 305.046 160.875 262.346 144.624 226.5L63.1243 50C49.6243 20.5 46.6243 18 30.1243 14.5L21.4117 12.7575C20.0094 12.477 19 11.2458 19 9.81574V0H147V10.5471C147 11.037 146.817 11.5223 146.418 11.8073V11.8073C146.229 11.9423 146.007 12.0196 145.778 12.0578L137.124 13.5C128.124 15 124.624 17.5 124.624 21C124.624 24.3092 134.011 45.4969 148.135 77.3791C148.949 79.2176 149.779 81.0917 150.624 83L200.124 193.5C211.525 218.745 218.616 232.716 224.096 243.514C225.345 245.975 226.511 248.273 227.624 250.5C233.624 240.5 245.124 217 253.124 199L259.624 184.5C263.124 176.5 264.624 170 264.624 167C264.624 164 261.124 153.5 259.124 148.5L211.124 43C199.624 18 196.5 15.5 177.5 13.5L174.728 13.248C173.183 13.1076 172 11.812 172 10.2604V0H296V12.0293L287.624 14C281.624 15.5 274.124 17.5 274.124 21C274.124 25 276.124 30.5 278.624 36L293.624 70.5C298.124 81 304.624 94.5 309.124 103.5L324.624 69.5L329.124 59.5C337.624 40.5 343.624 25.5 343.624 22.5C343.624 19 341.624 17.5 333.624 15.5L315.624 12C315.4 11.7754 315.192 11.5179 315 11.2319V0H418V11.6804C418 11.9971 417.874 12.3056 417.624 12.5V12.5L403.624 15.5C403.175 15.5924 402.736 15.6824 402.306 15.7705C386.43 19.0209 382.662 19.7923 365.624 49C353.624 69.5 341.124 94.5 334.624 107.5C330.124 116.5 323.624 131 323.624 133.5C323.624 135 324.124 138 327.624 146L351.124 196.5C364.124 224 371.124 240 374.124 247C381.961 228.06 390.172 208.534 398.512 188.7C415.711 147.795 433.461 105.581 449.624 64.5C453.124 56 462.624 29.5 462.624 24C462.624 19.3861 455.812 17.3268 449.653 15.4647L449.649 15.4635C449.134 15.3081 448.625 15.154 448.124 15L439.342 13.0264C437.973 12.7187 437 11.5028 437 10.0994V0H534.749Z" fill="#525763"/>
<path d="M63.0407 206.08C63.7761 204.605 65.8798 204.602 66.6184 206.076L128.548 329.604C129.215 330.934 128.248 332.5 126.76 332.5H3.23218C1.74636 332.5 0.77932 330.937 1.44237 329.607L63.0407 206.08Z" fill="#525763"/>
</svg>
